<svg width="50" height="50" viewBox="0 0 50 50" fill="none" xmlns="http://www.w3.org/2000/svg">
<rect width="50" height="50" rx="25" fill="#222B88"/>
<g clip-path="url(#clip0_2_28773)">
<path d="M25.0001 27.4445C24.5304 27.4445 24.0712 27.5879 23.6806 27.8565C23.2901 28.1251 22.9857 28.5069 22.8059 28.9535C22.6261 29.4002 22.5791 29.8917 22.6707 30.3659C22.7624 30.84 22.9886 31.2756 23.3207 31.6175C23.6529 31.9593 24.0761 32.1921 24.5368 32.2865C24.9975 32.3808 25.475 32.3324 25.909 32.1473C26.343 31.9623 26.7139 31.649 26.9748 31.247C27.2358 30.8451 27.3751 30.3724 27.3751 29.889C27.3745 29.2409 27.1241 28.6195 26.6788 28.1612C26.2335 27.7029 25.6298 27.4452 25.0001 27.4445ZM17.9107 37.0023C16.3509 34.9807 15.5013 32.4755 15.5 29.8939C15.4988 27.3124 16.3458 24.8063 17.9036 22.783L19.7632 24.3034C18.5394 25.8939 17.8739 27.8634 17.8748 29.8923C17.8756 31.9211 18.5428 33.8901 19.768 35.4794L17.9107 37.0023ZM13.1845 42.0183C10.1241 38.7663 8.41284 34.4164 8.41284 29.889C8.41284 25.3615 10.1241 21.0117 13.1845 17.7596L14.8945 19.4536C12.261 22.2512 10.7884 25.9937 10.7884 29.889C10.7884 33.7843 12.261 37.5267 14.8945 40.3243L13.1845 42.0183ZM32.0966 36.995L30.237 35.4745C31.4608 33.8841 32.1263 31.9145 32.1255 29.8857C32.1246 27.8568 31.4574 25.8879 30.2322 24.2985L32.0895 22.7756C33.6493 24.7973 34.4989 27.3025 34.5002 29.884C34.5015 32.4656 33.6544 34.9717 32.0966 36.995ZM36.8181 42.0183L35.1057 40.3243C37.7392 37.5267 39.2118 33.7843 39.2118 29.889C39.2118 25.9937 37.7392 22.2512 35.1057 19.4536L36.8157 17.7596C39.8762 21.0117 41.5874 25.3615 41.5874 29.889C41.5874 34.4164 39.8785 38.7663 36.8181 42.0183Z" fill="white"/>
</g>
<defs>
<clipPath id="clip0_2_28773">
<rect width="38" height="33" fill="white" transform="translate(6 14)"/>
</clipPath>
</defs>
</svg>
