<svg width="50" height="50" viewBox="0 0 50 50" fill="none" xmlns="http://www.w3.org/2000/svg">
<g clip-path="url(#clip0_12068_44639)">
<rect width="50" height="50" rx="25" fill="#222B88"/>
<path d="M36.1847 20.7554C36.2775 20.5981 36.4007 20.4609 36.5472 20.3517C36.6936 20.2426 36.8603 20.1637 37.0375 20.1196C37.2148 20.0755 37.3991 20.0672 37.5796 20.0951C37.7601 20.123 37.9332 20.1866 38.0889 20.2821C38.2446 20.3776 38.3797 20.5032 38.4863 20.6515C38.5929 20.7998 38.669 20.9678 38.71 21.1458C38.751 21.3238 38.7561 21.5081 38.7251 21.6881C38.6941 21.8681 38.6276 22.0402 38.5294 22.1942L37.535 23.9166C37.4438 24.0745 37.4191 24.2622 37.4663 24.4383C37.5135 24.6144 37.6287 24.7646 37.7866 24.8557L40.4382 26.3866C40.5376 26.444 40.6498 26.4756 40.7646 26.4785C40.8794 26.4814 40.9931 26.4555 41.0952 26.4032C41.1974 26.3508 41.2849 26.2738 41.3497 26.1789C41.4144 26.0841 41.4544 25.9746 41.4659 25.8604L42.7218 13.4367C42.7351 13.3049 42.7101 13.1721 42.6497 13.0542C42.5894 12.9363 42.4962 12.8384 42.3815 12.7722C42.2668 12.7059 42.1354 12.6743 42.0032 12.6809C41.8709 12.6876 41.7434 12.7323 41.6359 12.8098L31.5046 20.1092C31.4114 20.1763 31.3366 20.2657 31.2869 20.3692C31.2371 20.4727 31.2141 20.587 31.2199 20.7016C31.2256 20.8163 31.2601 20.9277 31.3199 21.0256C31.3798 21.1236 31.4633 21.205 31.5627 21.2624L34.2143 22.7933C34.3722 22.8844 34.5598 22.9091 34.7359 22.8619C34.9121 22.8148 35.0622 22.6995 35.1534 22.5416L36.1847 20.7554Z" fill="#222B88"/>
<path d="M24.0094 43.3232L24.0095 43.3234L24.0094 43.3232ZM39.0731 47.4157C37.0172 44.8367 35.4433 41.9081 34.4271 38.7705C33.5874 36.5736 31.9993 34.7437 29.9425 33.6031L29.5076 31.9756C29.4578 31.8026 29.342 31.656 29.1853 31.5673C29.0285 31.4787 28.8432 31.4551 28.6692 31.5016C28.4953 31.5481 28.3465 31.661 28.2548 31.816C28.1632 31.971 28.1361 32.1558 28.1792 32.3307L28.3178 32.8494C26.6644 32.2717 24.9205 31.9963 23.1695 32.0364C22.7243 32.045 22.2884 32.1658 21.9022 32.3875C21.516 32.6092 21.1919 32.9248 20.96 33.3049L17.7354 38.6742C17.6318 38.8497 17.5641 39.0439 17.5359 39.2457C17.5078 39.4474 17.5198 39.6528 17.5714 39.8499C17.6229 40.047 17.713 40.2319 17.8363 40.3941C17.9596 40.5562 18.1138 40.6924 18.29 40.7947C20.4329 41.9529 22.7394 40.6199 24.5035 38.8739C25.2029 38.7612 25.6844 39.1889 26.2126 39.8837C26.3024 41.526 26.8732 43.1055 27.854 44.4258L22.5734 45.8415C23.0985 45.6955 23.5445 45.3474 23.8137 44.8734C24.0829 44.3995 24.1534 43.8382 24.0099 43.3124C23.8663 42.7865 23.5204 42.3389 23.0477 42.0675C22.575 41.7961 22.0141 41.7229 21.4876 41.8639C20.9611 42.005 20.5118 42.3488 20.2382 42.8202C19.9645 43.2916 19.8887 43.8522 20.0273 44.3794C20.1658 44.9066 20.5075 45.3574 20.9776 45.6333C21.4477 45.9092 22.008 45.9877 22.5358 45.8516L16.153 47.5628L14.5858 47.9819C14.4987 48.0063 14.4077 48.0132 14.318 48.0021C14.2283 47.9909 14.1417 47.962 14.0633 47.9171C13.9849 47.8721 13.9162 47.812 13.8612 47.7402C13.8063 47.6684 13.7662 47.5864 13.7433 47.499L5.91258 18.2802C5.88841 18.193 5.88182 18.1019 5.89319 18.0121C5.90456 17.9223 5.93367 17.8357 5.97882 17.7572C6.02396 17.6788 6.08425 17.6101 6.15618 17.5552C6.2281 17.5002 6.31023 17.4602 6.39778 17.4372L22.3319 13.1684C22.419 13.144 22.5101 13.1372 22.5998 13.1484C22.6895 13.1595 22.7761 13.1885 22.8545 13.2335C22.933 13.2785 23.0016 13.3386 23.0566 13.4104C23.1115 13.4823 23.1516 13.5643 23.1744 13.6518L26.7563 27.0167C26.8057 27.1904 26.9214 27.3377 27.0785 27.4267C27.2355 27.5158 27.4213 27.5395 27.5957 27.4928C27.7701 27.446 27.9191 27.3326 28.0105 27.1769C28.102 27.0213 28.1285 26.8359 28.0845 26.6608L24.5026 13.2958C24.4327 13.0339 24.3118 12.7884 24.1467 12.5733C23.9817 12.3583 23.7757 12.178 23.5408 12.0428C23.3058 11.9076 23.0465 11.8201 22.7776 11.7855C22.5087 11.7508 22.2357 11.7696 21.9741 11.8408L6.04007 16.1096C5.77846 16.18 5.53329 16.3013 5.31857 16.4665C5.10384 16.6317 4.92377 16.8375 4.78864 17.0724C4.65351 17.3072 4.56597 17.5663 4.53102 17.835C4.49608 18.1036 4.51441 18.3765 4.58497 18.6381L12.4151 47.8549C12.485 48.1168 12.6059 48.3623 12.771 48.5773C12.936 48.7923 13.1419 48.9726 13.3768 49.1077C13.6117 49.2429 13.8711 49.3304 14.1399 49.365C14.4087 49.3997 14.6817 49.3808 14.9432 49.3097L16.1859 48.9773L20.9785 52.5718C21.0875 52.6539 21.2186 52.7015 21.3549 52.7084C25.0024 52.8637 31.4307 52.5709 35.5916 50.7575C36.5782 50.3252 40.0391 48.5599 39.0731 47.4157ZM22.0166 44.5451C21.8883 44.5449 21.7627 44.5089 21.6538 44.441C21.5449 44.3732 21.4572 44.2763 21.4006 44.1612C21.3439 44.0461 21.3206 43.9175 21.3332 43.7899C21.3458 43.6622 21.3939 43.5407 21.472 43.4389C21.5501 43.3372 21.6551 43.2593 21.7752 43.2141C21.8952 43.1689 22.0255 43.1582 22.1513 43.1832C22.2771 43.2082 22.3934 43.2679 22.4871 43.3555C22.5807 43.4432 22.648 43.5552 22.6813 43.6791C22.7085 43.781 22.7119 43.8879 22.6913 43.9913C22.6707 44.0948 22.6265 44.1922 22.5623 44.2758C22.498 44.3595 22.4154 44.4273 22.3208 44.474C22.2262 44.5207 22.1221 44.545 22.0166 44.5451ZM33.1076 39.1567L33.1074 39.1567L33.1076 39.1567ZM35.0489 49.494C31.171 51.1512 25.4972 51.4632 21.6329 51.3439L17.8743 48.5249L29.0003 45.542C29.5982 45.9156 31.1815 47.1766 31.6688 46.05C31.6971 45.9642 31.7083 45.8738 31.7016 45.7837C31.695 45.6937 31.6707 45.6058 31.6301 45.5252C31.5895 45.4445 31.5334 45.3727 31.465 45.3137C31.3966 45.2547 31.3173 45.2098 31.2316 45.1815C30.3869 44.8747 29.6332 44.36 29.04 43.685C28.4468 43.01 28.0332 42.1964 27.8375 41.3193C27.6863 40.7743 27.5994 40.2136 27.5785 39.6484C27.1272 38.0689 24.8879 36.8801 23.6548 37.7856C22.1713 39.1838 20.6616 40.3891 18.9585 39.5944C18.8929 39.5673 18.8799 39.4477 18.9159 39.3791L22.1385 34.0127C22.832 32.9973 24.3013 33.5137 25.3312 33.5351C28.6746 33.831 32.1576 36.2454 33.1075 39.157C34.1079 42.296 35.6496 45.2358 37.6629 47.8436C36.8958 48.5437 36.0108 49.1025 35.0489 49.494H35.0489ZM43.1453 11.5514C43.0305 11.4855 42.8991 11.4539 42.7669 11.4606C42.6347 11.4673 42.5072 11.5118 42.3997 11.589L30.166 20.403C30.074 20.4709 30.0002 20.5605 29.9513 20.6638C29.9024 20.7672 29.8798 20.881 29.8855 20.9952C29.8913 21.1094 29.9252 21.2204 29.9843 21.3182C30.0434 21.4161 30.1258 21.4979 30.2241 21.5562L34.3917 23.9624C34.5496 24.0536 34.7373 24.0783 34.9134 24.0311C35.0895 23.9839 35.2397 23.8687 35.3309 23.7108L36.7059 21.3294C36.7989 21.1753 36.9487 21.0638 37.1231 21.0189C37.2975 20.974 37.4825 20.9993 37.6384 21.0893C37.7944 21.1794 37.9088 21.327 37.9571 21.5004C38.0054 21.6739 37.9837 21.8594 37.8968 22.017L36.5218 24.3983C36.4319 24.5565 36.408 24.7437 36.455 24.9194C36.5021 25.0952 36.6165 25.2453 36.7735 25.3374L40.9411 27.7437C41.0405 27.8011 41.1527 27.8327 41.2675 27.8355C41.3823 27.8384 41.496 27.8125 41.5982 27.7602C41.7004 27.7079 41.7878 27.6308 41.8526 27.536C41.9173 27.4412 41.9573 27.3316 41.9688 27.2174L43.4855 12.216C43.4986 12.0842 43.4734 11.9515 43.4131 11.8337C43.3528 11.7158 43.2598 11.6179 43.1453 11.5514ZM40.7078 26.0212L38.0564 24.4904L39.0876 22.7044C39.3538 22.2311 39.4227 21.6719 39.2792 21.1481C39.1357 20.6244 38.7914 20.1784 38.3211 19.9068C37.8508 19.6353 37.2924 19.5602 36.7671 19.6978C36.2418 19.8354 35.7919 20.1746 35.5151 20.6419L34.4838 22.4279L31.8324 20.8971L41.9638 13.5977L40.7078 26.0212Z" fill="#F8FAFC"/>
<path d="M16.171 28.0189C16.0052 27.9488 15.8184 27.9466 15.651 28.0126C15.4835 28.0787 15.3486 28.2078 15.2753 28.3723C15.202 28.5367 15.1961 28.7234 15.2589 28.8921C15.3217 29.0608 15.4481 29.1982 15.6111 29.2747C16.0377 29.3952 17.4656 30.3721 17.8161 29.3876C18.1507 28.4343 16.5611 28.2958 16.171 28.0189ZM19.9517 29.2105C19.7744 29.1792 19.5919 29.2186 19.4433 29.3203C19.2948 29.4221 19.192 29.578 19.1572 29.7546C19.1224 29.9313 19.1582 30.1145 19.2571 30.265C19.3559 30.4155 19.5098 30.5213 19.6857 30.5596C20.3452 30.6131 21.6662 31.2124 21.8592 30.1826C21.9242 29.172 20.5744 29.4227 19.9517 29.2105ZM32.0985 28.4741C32.6898 28.0273 33.9866 27.6348 33.4528 26.7295C32.7982 25.9506 32.0562 26.9981 31.3911 27.2951C31.2385 27.3907 31.1295 27.5423 31.0875 27.7174C31.0455 27.8925 31.0739 28.0771 31.1665 28.2315C31.2592 28.3859 31.4087 28.4978 31.5829 28.5432C31.7572 28.5886 31.9423 28.5638 32.0985 28.4741ZM27.3221 29.7423C27.5079 30.3657 28.1837 30.2639 28.6571 30.0538C29.2313 29.8555 30.209 29.6593 29.9204 28.8468C29.5947 28.0764 28.789 28.5676 28.2255 28.7484C27.7299 28.8521 27.139 29.1355 27.3221 29.7423ZM35.624 24.72C35.5448 24.6479 35.4508 24.594 35.3486 24.562C35.2464 24.5301 35.1385 24.5209 35.0323 24.535C34.9262 24.5492 34.8244 24.5863 34.7341 24.6439C34.6439 24.7016 34.5673 24.7782 34.5098 24.8685C34.3842 24.9976 34.3144 25.1708 34.3151 25.3509C34.3159 25.531 34.3873 25.7035 34.514 25.8315C34.6406 25.9595 34.8124 26.0327 34.9925 26.0354C35.1725 26.0381 35.3465 25.9701 35.4769 25.8459C35.5686 25.7881 35.6465 25.7108 35.705 25.6195C35.7634 25.5282 35.801 25.4251 35.8151 25.3175C35.8291 25.21 35.8193 25.1007 35.7863 24.9974C35.7532 24.8942 35.6978 24.7994 35.624 24.72ZM23.8953 29.5277C23.805 29.5312 23.7164 29.5524 23.6344 29.5901C23.5523 29.6278 23.4785 29.6813 23.4172 29.7476C23.3558 29.8138 23.3081 29.8915 23.2768 29.9761C23.2455 30.0608 23.2311 30.1508 23.2346 30.2411C23.3625 31.2844 24.6528 30.797 25.3748 30.7882C25.5558 30.7661 25.7206 30.6731 25.8331 30.5296C25.9455 30.386 25.9963 30.2037 25.9743 30.0226C25.7924 29.0269 24.5653 29.5903 23.8953 29.5277Z" fill="#F8FAFC"/>
</g>
<defs>
<clipPath id="clip0_12068_44639">
<rect width="50" height="50" rx="25" fill="white"/>
</clipPath>
</defs>
</svg>
